<svg xmlns="http://www.w3.org/2000/svg" xmlns:xlink="http://www.w3.org/1999/xlink" width="2000" zoomAndPan="magnify" viewBox="0 0 1500 1499.999933" height="2000" preserveAspectRatio="xMidYMid meet" version="1.0"><defs><clipPath id="45a498bbac"><path d="M 0.832031 1 L 536.746094 1 L 536.746094 705.910156 L 0.832031 705.910156 Z M 0.832031 1 " clip-rule="nonzero"/></clipPath><clipPath id="ae564b7bf3"><path d="M 21.167969 471.011719 C 8.890625 435.019531 0.832031 393.855469 0.832031 353.566406 C 0.832031 313.273438 7.738281 274.503906 20.019531 238.777344 C 20.402344 238.015625 20.402344 237.257812 20.785156 236.496094 C 69.902344 102.324219 199.601562 3.5 343.824219 1.601562 L 536.746094 1.601562 L 536.746094 705.910156 L 343.96875 705.910156 C 198.835938 704.007812 69.136719 606.703125 21.167969 471.011719 Z M 21.167969 471.011719 " clip-rule="nonzero"/></clipPath><clipPath id="dd40eb3832"><path d="M 0.832031 1 L 536.746094 1 L 536.746094 704.910156 L 0.832031 704.910156 Z M 0.832031 1 " clip-rule="nonzero"/></clipPath><clipPath id="5a26fdbad1"><path d="M 21.167969 470.011719 C 8.890625 434.019531 0.832031 392.855469 0.832031 352.566406 C 0.832031 312.273438 7.738281 273.503906 20.019531 237.777344 C 20.402344 237.015625 20.402344 236.257812 20.785156 235.496094 C 69.902344 101.324219 199.601562 2.5 343.824219 0.601562 L 536.746094 0.601562 L 536.746094 704.910156 L 343.96875 704.910156 C 198.835938 703.007812 69.136719 605.703125 21.167969 470.011719 Z M 21.167969 470.011719 " clip-rule="nonzero"/></clipPath><clipPath id="dabfc798c6"><rect x="0" width="537" y="0" height="705"/></clipPath><clipPath id="385e4397f8"><path d="M 358.097656 1.605469 L 1093.195312 1.605469 L 1093.195312 457.035156 L 358.097656 457.035156 Z M 358.097656 1.605469 " clip-rule="nonzero"/></clipPath><clipPath id="5f7833a92d"><path d="M 0.0976562 0.605469 L 735 0.605469 L 735 456.035156 L 0.0976562 456.035156 Z M 0.0976562 0.605469 " clip-rule="nonzero"/></clipPath><clipPath id="cef12a1321"><rect x="0" width="736" y="0" height="457"/></clipPath><clipPath id="3cf3d08be3"><path d="M 0.800781 933.640625 L 434.789062 933.640625 L 434.789062 1274.359375 L 0.800781 1274.359375 Z M 0.800781 933.640625 " clip-rule="nonzero"/></clipPath><clipPath id="fdb81c0692"><path d="M 0.800781 0.640625 L 434.789062 0.640625 L 434.789062 341.359375 L 0.800781 341.359375 Z M 0.800781 0.640625 " clip-rule="nonzero"/></clipPath><clipPath id="03137dabb7"><rect x="0" width="435" y="0" height="342"/></clipPath><clipPath id="6ccc486ab3"><path d="M 99 280 L 1094 280 L 1094 1275 L 99 1275 Z M 99 280 " clip-rule="nonzero"/></clipPath><clipPath id="6b575ea982"><path d="M 99.277344 602.5 L 421.3125 280.464844 L 1093.1875 952.339844 L 771.152344 1274.375 Z M 99.277344 602.5 " clip-rule="nonzero"/></clipPath><clipPath id="4512dc447c"><path d="M 0.160156 0.398438 L 994.238281 0.398438 L 994.238281 994.480469 L 0.160156 994.480469 Z M 0.160156 0.398438 " clip-rule="nonzero"/></clipPath><clipPath id="6eb3d8d5af"><path d="M 0.277344 322.5 L 322.3125 0.464844 L 994.1875 672.339844 L 672.152344 994.375 Z M 0.277344 322.5 " clip-rule="nonzero"/></clipPath><clipPath id="dae3928e58"><rect x="0" width="995" y="0" height="995"/></clipPath><clipPath id="202d3fac72"><rect x="0" width="1095" y="0" height="1276"/></clipPath></defs><rect x="-150" width="1800" fill="#ffffff" y="-149.999993" height="1799.99992" fill-opacity="1"/><rect x="-150" width="1800" fill="#f5f5f5" y="-149.999993" height="1799.99992" fill-opacity="1"/><g transform="matrix(1, 0, 0, 1, 203, 112)"><g clip-path="url(#202d3fac72)"><g clip-path="url(#45a498bbac)"><g clip-path="url(#ae564b7bf3)"><g transform="matrix(1, 0, 0, 1, 0, 1)"><g clip-path="url(#dabfc798c6)"><g clip-path="url(#dd40eb3832)"><g clip-path="url(#5a26fdbad1)"><path fill="#0b3d91" d="M 0.832031 704.910156 L 0.832031 1.523438 L 536.746094 1.523438 L 536.746094 704.910156 Z M 0.832031 704.910156 " fill-opacity="1" fill-rule="nonzero"/></g></g></g></g></g></g><g clip-path="url(#385e4397f8)"><g transform="matrix(1, 0, 0, 1, 358, 1)"><g clip-path="url(#cef12a1321)"><g clip-path="url(#5f7833a92d)"><path fill="#0b3d91" d="M 0.0976562 456.035156 L 0.0976562 0.605469 L 734.832031 0.605469 L 734.832031 456.035156 Z M 0.0976562 456.035156 " fill-opacity="1" fill-rule="nonzero"/></g></g></g></g><g clip-path="url(#3cf3d08be3)"><g transform="matrix(1, 0, 0, 1, 0, 933)"><g clip-path="url(#03137dabb7)"><g clip-path="url(#fdb81c0692)"><path fill="#0b3d91" d="M 0.800781 341.359375 L 0.800781 0.640625 L 434.6875 0.640625 L 434.6875 341.359375 Z M 0.800781 341.359375 " fill-opacity="1" fill-rule="nonzero"/></g></g></g></g><g clip-path="url(#6ccc486ab3)"><g clip-path="url(#6b575ea982)"><g transform="matrix(1, 0, 0, 1, 99, 280)"><g clip-path="url(#dae3928e58)"><g clip-path="url(#4512dc447c)"><g clip-path="url(#6eb3d8d5af)"><path fill="#0b3d91" d="M 0.277344 322.5 L 322.3125 0.464844 L 994.058594 672.210938 L 672.023438 994.246094 Z M 0.277344 322.5 " fill-opacity="1" fill-rule="nonzero"/></g></g></g></g></g></g></g></g></svg>