<svg xmlns="http://www.w3.org/2000/svg" xmlns:xlink="http://www.w3.org/1999/xlink" width="2000" zoomAndPan="magnify" viewBox="0 0 1500 1499.999933" height="2000" preserveAspectRatio="xMidYMid meet" version="1.0"><defs><g/><clipPath id="040e743a0c"><rect x="0" width="758" y="0" height="538"/></clipPath><clipPath id="d4565411f0"><rect x="0" width="564" y="0" height="123"/></clipPath><clipPath id="0f01a131a4"><path d="M 60.378906 485.429688 L 273.578125 485.429688 L 273.578125 766.085938 L 60.378906 766.085938 Z M 60.378906 485.429688 " clip-rule="nonzero"/></clipPath><clipPath id="ce2425912a"><path d="M 68.46875 672.636719 C 63.585938 658.320312 60.378906 641.941406 60.378906 625.914062 C 60.378906 609.886719 63.125 594.460938 68.011719 580.25 C 68.164062 579.945312 68.164062 579.644531 68.316406 579.34375 C 87.855469 525.964844 139.453125 486.652344 196.828125 485.894531 L 273.578125 485.894531 L 273.578125 766.085938 L 196.886719 766.085938 C 139.148438 765.328125 87.550781 726.621094 68.46875 672.636719 Z M 68.46875 672.636719 " clip-rule="nonzero"/></clipPath><clipPath id="1f51272926"><path d="M 0.378906 1 L 213.578125 1 L 213.578125 281.085938 L 0.378906 281.085938 Z M 0.378906 1 " clip-rule="nonzero"/></clipPath><clipPath id="f5f04492f0"><path d="M 8.46875 187.636719 C 3.585938 173.320312 0.378906 156.941406 0.378906 140.914062 C 0.378906 124.886719 3.125 109.460938 8.011719 95.25 C 8.164062 94.945312 8.164062 94.644531 8.316406 94.34375 C 27.855469 40.964844 79.453125 1.652344 136.828125 0.894531 L 213.578125 0.894531 L 213.578125 281.085938 L 136.886719 281.085938 C 79.148438 280.328125 27.550781 241.621094 8.46875 187.636719 Z M 8.46875 187.636719 " clip-rule="nonzero"/></clipPath><clipPath id="e41eaf2dca"><rect x="0" width="214" y="0" height="282"/></clipPath><clipPath id="adf7dfde9f"><path d="M 202.507812 485.894531 L 494.945312 485.894531 L 494.945312 667.074219 L 202.507812 667.074219 Z M 202.507812 485.894531 " clip-rule="nonzero"/></clipPath><clipPath id="656b8eec46"><path d="M 0.507812 0.894531 L 292.945312 0.894531 L 292.945312 182.074219 L 0.507812 182.074219 Z M 0.507812 0.894531 " clip-rule="nonzero"/></clipPath><clipPath id="d05400cab1"><rect x="0" width="293" y="0" height="183"/></clipPath><clipPath id="9596c89858"><path d="M 60.378906 856.683594 L 233.027344 856.683594 L 233.027344 992.226562 L 60.378906 992.226562 Z M 60.378906 856.683594 " clip-rule="nonzero"/></clipPath><clipPath id="0f923c8101"><path d="M 0.378906 0.683594 L 173 0.683594 L 173 136.226562 L 0.378906 136.226562 Z M 0.378906 0.683594 " clip-rule="nonzero"/></clipPath><clipPath id="d1c433ea62"><rect x="0" width="174" y="0" height="137"/></clipPath><clipPath id="8993772de7"><path d="M 99 596 L 495 596 L 495 993 L 99 993 Z M 99 596 " clip-rule="nonzero"/></clipPath><clipPath id="6fc1466a29"><path d="M 99.546875 724.945312 L 227.65625 596.832031 L 494.945312 864.117188 L 366.832031 992.230469 Z M 99.546875 724.945312 " clip-rule="nonzero"/></clipPath><clipPath id="1f1db7a205"><path d="M 0.359375 0.640625 L 396 0.640625 L 396 396.398438 L 0.359375 396.398438 Z M 0.359375 0.640625 " clip-rule="nonzero"/></clipPath><clipPath id="0a869e8482"><path d="M 0.546875 128.945312 L 128.65625 0.832031 L 395.945312 268.117188 L 267.832031 396.230469 Z M 0.546875 128.945312 " clip-rule="nonzero"/></clipPath><clipPath id="d6a9ef54f6"><rect x="0" width="396" y="0" height="397"/></clipPath></defs><rect x="-150" width="1800" fill="#ffffff" y="-149.999993" height="1799.99992" fill-opacity="1"/><rect x="-150" width="1800" fill="#f5f5f5" y="-149.999993" height="1799.99992" fill-opacity="1"/><g transform="matrix(1, 0, 0, 1, 576, 400)"><g clip-path="url(#040e743a0c)"><g fill="#0b3d91" fill-opacity="1"><g transform="translate(0.771605, 257.293167)"><g><path d="M 159.300781 -90.589844 L 89.414062 -90.589844 L 89.414062 -61.414062 L 129.179688 -61.414062 C 125.652344 -36.941406 108.945312 -24.707031 88.238281 -24.707031 C 59.296875 -24.707031 43.058594 -48.472656 43.058594 -83.765625 C 43.058594 -118.121094 59.0625 -141.417969 88.238281 -141.417969 C 108.710938 -141.417969 120.945312 -130.121094 124.003906 -112.472656 L 158.121094 -114.589844 C 152.476562 -149.886719 127.769531 -171.535156 86.355469 -171.535156 C 41.648438 -171.535156 8.234375 -138.121094 8.234375 -83.765625 C 8.234375 -29.414062 42.117188 5.410156 84.472656 5.410156 C 106.828125 5.410156 122.828125 -4.472656 131.296875 -17.882812 L 136.710938 0 L 159.300781 0 Z M 159.300781 -90.589844 "/></g></g></g><g fill="#0b3d91" fill-opacity="1"><g transform="translate(158.392649, 257.293167)"><g><path d="M 121.652344 0 C 118.121094 -6.117188 116.945312 -14.117188 116.945312 -25.414062 L 116.945312 -79.0625 C 116.945312 -108.945312 99.296875 -124.238281 64.472656 -124.238281 C 31.765625 -124.238281 15.058594 -111.769531 12.707031 -85.179688 L 43.058594 -84.707031 C 44.707031 -96.003906 51.058594 -100.707031 64.707031 -100.707031 C 77.882812 -100.707031 85.179688 -96.472656 85.179688 -87.53125 L 85.179688 -78.589844 L 42.824219 -70.121094 C 18.351562 -65.179688 5.882812 -52.707031 5.882812 -33.414062 C 5.882812 -11.292969 22.355469 3.53125 48 3.53125 C 64.003906 3.53125 77.179688 -2.351562 85.414062 -12.234375 C 86.121094 -8 87.0625 -4.234375 88.003906 0 Z M 57.414062 -20.941406 C 45.179688 -20.941406 38.355469 -26.824219 38.355469 -35.53125 C 38.355469 -43.53125 44 -48.707031 54.121094 -50.824219 L 85.179688 -57.414062 L 85.179688 -48.472656 C 85.179688 -30.589844 73.179688 -20.941406 57.414062 -20.941406 Z M 57.414062 -20.941406 "/></g></g></g><g fill="#0b3d91" fill-opacity="1"><g transform="translate(270.137395, 257.293167)"><g><path d="M 73.882812 -61.414062 C 71.765625 -54.355469 69.179688 -45.882812 66.824219 -36.941406 C 64.238281 -45.882812 61.882812 -54.589844 59.53125 -61.648438 L 40 -121.414062 L 3.53125 -121.414062 L 50.824219 6.117188 L 49.648438 9.410156 C 47.058594 16.707031 42.355469 19.765625 32.472656 19.765625 L 16.472656 19.765625 L 16.472656 48 L 44.238281 48 C 61.414062 48 71.765625 42.824219 78.824219 21.648438 L 127.296875 -121.414062 L 92.003906 -121.414062 Z M 73.882812 -61.414062 "/></g></g></g><g fill="#0b3d91" fill-opacity="1"><g transform="translate(381.646931, 257.293167)"><g><path d="M 92.472656 -109.179688 C 84.238281 -119.296875 72.707031 -124.472656 57.179688 -124.472656 C 29.648438 -124.472656 7.53125 -100.945312 7.53125 -61.179688 C 7.53125 -22.117188 29.175781 4 59.765625 4 C 74.824219 4 86.828125 -2.351562 95.0625 -15.058594 L 96.238281 0 L 125.652344 0 L 125.652344 -167.535156 L 92.472656 -167.535156 Z M 66.824219 -25.175781 C 50.824219 -25.175781 39.53125 -38.824219 39.53125 -61.179688 C 39.53125 -83.296875 50.824219 -96.945312 66.824219 -96.945312 C 82.824219 -96.945312 94.121094 -83.0625 94.121094 -61.179688 C 94.121094 -39.296875 82.824219 -25.175781 66.824219 -25.175781 Z M 66.824219 -25.175781 "/></g></g></g><g fill="#0b3d91" fill-opacity="1"><g transform="translate(504.449368, 257.293167)"><g><path d="M 88.707031 -56.472656 C 88.707031 -38.355469 79.0625 -26.824219 64.941406 -26.824219 C 53.179688 -26.824219 47.296875 -34.824219 47.296875 -47.53125 L 47.296875 -121.414062 L 14.117188 -121.414062 L 14.117188 -40 C 14.117188 -13.648438 28.707031 3.058594 53.882812 3.058594 C 69.414062 3.058594 80.945312 -3.292969 88.945312 -16.472656 L 89.414062 0 L 121.886719 0 L 121.886719 -121.414062 L 88.707031 -121.414062 Z M 88.707031 -56.472656 "/></g></g></g><g fill="#0b3d91" fill-opacity="1"><g transform="translate(623.487643, 257.293167)"><g><path d="M 69.648438 4 C 106.121094 4 131.769531 -23.53125 131.769531 -60.238281 C 131.769531 -96.945312 106.121094 -124.472656 69.648438 -124.472656 C 33.175781 -124.472656 7.53125 -96.945312 7.53125 -60.238281 C 7.53125 -23.53125 33.175781 4 69.648438 4 Z M 69.648438 -21.882812 C 51.058594 -21.882812 39.53125 -36.941406 39.53125 -60.238281 C 39.53125 -83.53125 51.058594 -98.589844 69.648438 -98.589844 C 88.238281 -98.589844 99.769531 -83.53125 99.769531 -60.238281 C 99.769531 -36.941406 88.238281 -21.882812 69.648438 -21.882812 Z M 69.648438 -21.882812 "/></g></g></g><g fill="#0b3d91" fill-opacity="1"><g transform="translate(0.771605, 449.975102)"><g><path d="M 80.238281 5.410156 C 121.652344 5.410156 146.828125 -14.824219 146.828125 -47.296875 C 146.828125 -75.296875 127.296875 -89.179688 101.179688 -95.53125 L 67.765625 -103.769531 C 54.824219 -107.0625 48.238281 -113.414062 48.238281 -122.59375 C 48.238281 -133.886719 58.121094 -142.828125 76.003906 -142.828125 C 94.355469 -142.828125 108.003906 -133.179688 110.121094 -116.238281 L 144.003906 -116.238281 C 141.886719 -149.179688 116.238281 -171.300781 75.765625 -171.300781 C 32.707031 -171.300781 13.175781 -145.652344 13.175781 -118.828125 C 13.175781 -95.296875 28.234375 -78.824219 54.355469 -72.238281 L 85.179688 -64.472656 C 101.179688 -60.472656 110.828125 -56 110.828125 -44 C 110.828125 -30.824219 99.0625 -23.058594 80.003906 -23.058594 C 57.882812 -23.058594 44.238281 -33.414062 43.296875 -52 L 9.175781 -52 C 10.117188 -15.765625 37.648438 5.410156 80.238281 5.410156 Z M 80.238281 5.410156 "/></g></g></g><g fill="#0b3d91" fill-opacity="1"><g transform="translate(139.807063, 449.975102)"><g><path d="M 82.589844 -124.472656 C 65.414062 -124.472656 52.941406 -118.121094 44.707031 -105.648438 L 43.53125 -121.414062 L 14.117188 -121.414062 L 14.117188 48 L 47.296875 48 L 47.296875 -11.292969 C 55.296875 -1.175781 66.589844 4 80.003906 4 C 110.589844 4 132.238281 -22.117188 132.238281 -61.179688 C 132.238281 -100.945312 110.121094 -124.472656 82.589844 -124.472656 Z M 72.945312 -25.175781 C 56.941406 -25.175781 45.648438 -39.296875 45.648438 -61.179688 C 45.648438 -83.0625 56.941406 -96.945312 72.945312 -96.945312 C 88.945312 -96.945312 100.238281 -83.296875 100.238281 -61.179688 C 100.238281 -38.824219 88.945312 -25.175781 72.945312 -25.175781 Z M 72.945312 -25.175781 "/></g></g></g><g fill="#0b3d91" fill-opacity="1"><g transform="translate(262.6095, 449.975102)"><g><path d="M 69.648438 4 C 106.121094 4 131.769531 -23.53125 131.769531 -60.238281 C 131.769531 -96.945312 106.121094 -124.472656 69.648438 -124.472656 C 33.175781 -124.472656 7.53125 -96.945312 7.53125 -60.238281 C 7.53125 -23.53125 33.175781 4 69.648438 4 Z M 69.648438 -21.882812 C 51.058594 -21.882812 39.53125 -36.941406 39.53125 -60.238281 C 39.53125 -83.53125 51.058594 -98.589844 69.648438 -98.589844 C 88.238281 -98.589844 99.769531 -83.53125 99.769531 -60.238281 C 99.769531 -36.941406 88.238281 -21.882812 69.648438 -21.882812 Z M 69.648438 -21.882812 "/></g></g></g><g fill="#0b3d91" fill-opacity="1"><g transform="translate(384.941379, 449.975102)"><g><path d="M 74.824219 -124.710938 C 61.414062 -124.710938 51.53125 -117.652344 46.117188 -104.710938 L 46.589844 -121.414062 L 14.117188 -121.414062 L 14.117188 0 L 47.296875 0 L 47.296875 -59.0625 C 47.296875 -82.589844 57.179688 -94.121094 77.414062 -94.121094 C 79.765625 -94.121094 81.886719 -93.886719 84.238281 -93.648438 L 84.238281 -123.769531 C 80.945312 -124.472656 77.648438 -124.710938 74.824219 -124.710938 Z M 74.824219 -124.710938 "/></g></g></g><g fill="#0b3d91" fill-opacity="1"><g transform="translate(463.986409, 449.975102)"><g><path d="M 75.765625 -96.945312 L 75.765625 -121.414062 L 53.179688 -120.710938 L 53.179688 -158.828125 L 20 -158.828125 L 20 -120.945312 L 3.53125 -121.414062 L 3.53125 -96.945312 L 20 -97.648438 L 20 -34.117188 C 20 -9.648438 29.648438 0 54.121094 0 L 75.765625 0 L 75.765625 -26.589844 L 64.707031 -26.589844 C 56.472656 -26.589844 53.179688 -29.882812 53.179688 -38.117188 L 53.179688 -97.648438 Z M 75.765625 -96.945312 "/></g></g></g><g fill="#0b3d91" fill-opacity="1"><g transform="translate(527.503058, 449.975102)"><g><path d="M 64.941406 4.472656 C 97.648438 4.472656 118.828125 -10.351562 118.828125 -36 C 118.828125 -54.824219 107.53125 -65.882812 83.296875 -70.824219 L 57.179688 -76.238281 C 48.472656 -78.121094 43.53125 -82.121094 43.53125 -88.472656 C 43.53125 -96.238281 50.589844 -101.414062 61.648438 -101.414062 C 74.121094 -101.414062 83.0625 -95.0625 84.707031 -84.472656 L 114.589844 -85.648438 C 111.53125 -109.414062 91.53125 -124.472656 62.121094 -124.472656 C 32.234375 -124.472656 12.707031 -108.945312 12.707031 -84.472656 C 12.707031 -65.882812 24.234375 -53.648438 48 -48.941406 L 72.003906 -44.238281 C 83.0625 -42.117188 88.003906 -38.589844 88.003906 -32 C 88.003906 -22.824219 78.589844 -18.589844 66.121094 -18.589844 C 50.355469 -18.589844 42.117188 -25.414062 40.238281 -37.414062 L 9.882812 -36.238281 C 12.941406 -10.351562 31.765625 4.472656 64.941406 4.472656 Z M 64.941406 4.472656 "/></g></g></g><g fill="#0b3d91" fill-opacity="1"><g transform="translate(637.601351, 449.975102)"><g><path d="M 52.941406 0 L 52.941406 -35.296875 L 14.117188 -35.296875 L 14.117188 0 Z M 52.941406 0 "/></g></g></g></g></g><g transform="matrix(1, 0, 0, 1, 607, 895)"><g clip-path="url(#d4565411f0)"><g fill="#ffb715" fill-opacity="1"><g transform="translate(0.218965, 92.46363)"><g><path d="M 63.660156 0 L 41.695312 -58.789062 L 23.367188 -58.789062 L 1.238281 0 L 20.558594 0 L 22.953125 -8.007812 L 41.859375 -8.007812 L 44.253906 0 Z M 30.21875 -31.789062 L 32.449219 -41.035156 L 34.679688 -31.789062 L 38.144531 -20.394531 L 26.75 -20.394531 Z M 30.21875 -31.789062 "/></g></g></g><g fill="#ffb715" fill-opacity="1"><g transform="translate(93.683277, 92.46363)"><g><path d="M 62.007812 -32.367188 L 36.988281 -32.367188 L 36.988281 -19.566406 L 44.585938 -19.566406 C 43.015625 -14.449219 39.21875 -12.796875 34.511719 -12.796875 C 26.171875 -12.796875 22.210938 -17.835938 22.210938 -29.3125 C 22.210938 -40.128906 26.339844 -45.496094 33.191406 -45.496094 C 37.320312 -45.496094 40.621094 -43.511719 42.273438 -39.714844 L 60.027344 -40.953125 C 57.054688 -52.84375 46.648438 -60.191406 33.027344 -60.191406 C 15.933594 -60.191406 3.714844 -48.300781 3.714844 -29.144531 C 3.714844 -9.992188 15.933594 1.898438 31.375 1.898438 C 40.128906 1.898438 46.15625 -1.898438 48.878906 -5.53125 L 49.703125 0 L 62.007812 0 Z M 62.007812 -32.367188 "/></g></g></g><g fill="#ffb715" fill-opacity="1"><g transform="translate(191.688579, 92.46363)"><g><path d="M 23.449219 -22.375 L 50.449219 -22.375 L 50.449219 -36.824219 L 23.449219 -36.824219 L 23.449219 -43.511719 L 54.988281 -43.511719 L 54.988281 -58.789062 L 4.953125 -58.789062 L 4.953125 0 L 55.816406 0 L 55.816406 -15.273438 L 23.449219 -15.273438 Z M 23.449219 -22.375 "/></g></g></g><g fill="#ffb715" fill-opacity="1"><g transform="translate(281.850693, 92.46363)"><g><path d="M 41.367188 -38.804688 L 41.367188 -27.988281 C 39.796875 -30.714844 38.226562 -33.523438 36.578125 -36.246094 L 23.285156 -58.789062 L 4.953125 -58.789062 L 4.953125 0 L 23.117188 0 L 23.117188 -30.46875 C 24.851562 -27.410156 26.585938 -24.273438 28.402344 -21.21875 L 40.789062 0 L 59.53125 0 L 59.53125 -58.789062 L 41.367188 -58.789062 Z M 41.367188 -38.804688 "/></g></g></g><g fill="#ffb715" fill-opacity="1"><g transform="translate(377.379195, 92.46363)"><g><path d="M 33.027344 1.898438 C 48.632812 1.898438 59.859375 -7.511719 61.097656 -22.871094 L 42.6875 -22.871094 C 42.027344 -16.101562 38.890625 -12.796875 33.191406 -12.796875 C 26.421875 -12.796875 22.210938 -17.835938 22.210938 -29.3125 C 22.210938 -40.128906 26.339844 -45.496094 33.191406 -45.496094 C 38.394531 -45.496094 41.859375 -42.523438 42.6875 -36.496094 L 60.933594 -36.496094 C 59.199219 -51.191406 48.21875 -60.191406 33.027344 -60.191406 C 15.933594 -60.191406 3.714844 -48.300781 3.714844 -29.144531 C 3.714844 -9.992188 15.933594 1.898438 33.027344 1.898438 Z M 33.027344 1.898438 "/></g></g></g><g fill="#ffb715" fill-opacity="1"><g transform="translate(468.036329, 92.46363)"><g><path d="M 34.183594 -43.183594 L 31.621094 -36.496094 L 29.0625 -43.183594 L 21.550781 -58.789062 L 0.910156 -58.789062 L 22.457031 -21.46875 L 22.457031 0 L 40.953125 0 L 40.953125 -21.46875 L 62.503906 -58.789062 L 42.027344 -58.789062 Z M 34.183594 -43.183594 "/></g></g></g></g></g><g clip-path="url(#0f01a131a4)"><g clip-path="url(#ce2425912a)"><g transform="matrix(1, 0, 0, 1, 60, 485)"><g clip-path="url(#e41eaf2dca)"><g clip-path="url(#1f51272926)"><g clip-path="url(#f5f04492f0)"><path fill="#000000" d="M 0.378906 281.085938 L 0.378906 1.261719 L 213.578125 1.261719 L 213.578125 281.085938 Z M 0.378906 281.085938 " fill-opacity="1" fill-rule="nonzero"/></g></g></g></g></g></g><g clip-path="url(#adf7dfde9f)"><g transform="matrix(1, 0, 0, 1, 202, 485)"><g clip-path="url(#d05400cab1)"><g clip-path="url(#656b8eec46)"><path fill="#000000" d="M 0.507812 182.074219 L 0.507812 0.894531 L 292.800781 0.894531 L 292.800781 182.074219 Z M 0.507812 182.074219 " fill-opacity="1" fill-rule="nonzero"/></g></g></g></g><g clip-path="url(#9596c89858)"><g transform="matrix(1, 0, 0, 1, 60, 856)"><g clip-path="url(#d1c433ea62)"><g clip-path="url(#0f923c8101)"><path fill="#000000" d="M 0.378906 136.226562 L 0.378906 0.683594 L 172.984375 0.683594 L 172.984375 136.226562 Z M 0.378906 136.226562 " fill-opacity="1" fill-rule="nonzero"/></g></g></g></g><g clip-path="url(#8993772de7)"><g clip-path="url(#6fc1466a29)"><g transform="matrix(1, 0, 0, 1, 99, 596)"><g clip-path="url(#d6a9ef54f6)"><g clip-path="url(#1f1db7a205)"><g clip-path="url(#0a869e8482)"><path fill="#000000" d="M 0.546875 128.945312 L 128.65625 0.832031 L 395.894531 268.066406 L 267.78125 396.179688 Z M 0.546875 128.945312 " fill-opacity="1" fill-rule="nonzero"/></g></g></g></g></g></g></svg>